<svg width="52" height="52" viewBox="0 0 52 52" fill="none" xmlns="http://www.w3.org/2000/svg">
<path d="M7.64321 46.3625L3.55878 0.549316H48.4413L44.3528 46.3556L25.9728 51.4512L7.64321 46.3625Z" fill="#1572B6"/>
<path d="M26.0004 47.5565L40.8525 43.4387L44.3467 4.29492H26.0004V47.5565Z" fill="#33A9DC"/>
<path d="M26.0004 20.8931H33.4356L33.9491 15.1394H26.0004V9.52051H40.09L39.9551 11.0281L38.5739 26.5119H26.0004V20.8931Z" fill="white"/>
<path d="M26.0337 35.4856L26.0089 35.493L19.7515 33.8034L19.3513 29.322H13.7117L14.4986 38.1446L26.0081 41.3389L26.0337 41.3316V35.4856Z" fill="#EBEBEB"/>
<path d="M32.9578 26.2742L32.281 33.7987L26.0142 35.4904V41.3363L37.533 38.144L37.6175 37.1946L38.595 26.2742H32.9578Z" fill="white"/>
<path d="M26.0195 9.52051V15.1394H12.4475L12.335 13.8767L12.079 11.0281L11.9446 9.52051H26.0195ZM26.0004 20.8939V26.5127H19.8218L19.7092 25.2501L19.4529 22.4015L19.3188 20.8939H26.0004Z" fill="#EBEBEB"/>
</svg>
