<svg width="52" height="52" viewBox="0 0 52 52" fill="none" xmlns="http://www.w3.org/2000/svg">
<path d="M24.6407 19.8587C25.0677 19.2355 25.5332 19.1571 25.911 19.1571C26.2888 19.1571 26.9165 19.2355 27.3439 19.8587C30.6946 24.4238 36.2265 33.5205 40.3081 40.233C42.9711 44.6071 45.0149 47.9692 45.4358 48.3966C47.0096 50.0021 49.1688 49.0015 50.4238 47.1799C51.6583 45.3875 52 44.1281 52 42.7854C52 41.8702 34.1039 8.85748 32.3026 6.1092C30.5703 3.46695 30.004 2.79907 27.04 2.79907H24.8182C21.8607 2.79907 21.4338 3.46695 19.6999 6.1092C17.8986 8.85748 0 41.8702 0 42.7834C0 44.1281 0.344094 45.3875 1.58113 47.1799C2.83562 49.0015 4.99484 50.0021 6.56906 48.3945C6.9875 47.9668 9.03134 44.6071 11.6939 40.2309C15.7755 33.5205 21.2895 24.4238 24.6427 19.8563L24.6407 19.8587Z" fill="#E7E8F0"/>
</svg>
