<svg width="52" height="52" viewBox="0 0 52 52" fill="none" xmlns="http://www.w3.org/2000/svg">
<path d="M19.5 6.5H26V19.5H19.5C17.7761 19.5 16.1228 18.8152 14.9038 17.5962C13.6848 16.3772 13 14.7239 13 13C13 11.2761 13.6848 9.62279 14.9038 8.40381C16.1228 7.18482 17.7761 6.5 19.5 6.5Z" fill="#F4511E"/>
<path d="M32.5 19.5H26V6.5H32.5C34.2239 6.5 35.8772 7.18482 37.0962 8.40381C38.3152 9.62279 39 11.2761 39 13C39 14.7239 38.3152 16.3772 37.0962 17.5962C35.8772 18.8152 34.2239 19.5 32.5 19.5Z" fill="#FF8A65"/>
<path d="M26 26C26 29.5899 28.9101 32.5 32.5 32.5C36.0899 32.5 39 29.5899 39 26C39 22.4101 36.0899 19.5 32.5 19.5C28.9101 19.5 26 22.4101 26 26Z" fill="#29B6F6"/>
<path d="M19.5 19.5H26V32.5H19.5C17.7761 32.5 16.1228 31.8152 14.9038 30.5962C13.6848 29.3772 13 27.7239 13 26C13 24.2761 13.6848 22.6228 14.9038 21.4038C16.1228 20.1848 17.7761 19.5 19.5 19.5Z" fill="#7C4DFF"/>
<path d="M19.5 32.5H26V39C26 40.7239 25.3152 42.3772 24.0962 43.5962C22.8772 44.8152 21.2239 45.5 19.5 45.5C17.7761 45.5 16.1228 44.8152 14.9038 43.5962C13.6848 42.3772 13 40.7239 13 39C13 37.2761 13.6848 35.6228 14.9038 34.4038C16.1228 33.1848 17.7761 32.5 19.5 32.5Z" fill="#00E676"/>
</svg>
