<svg width="52" height="52" viewBox="0 0 52 52" fill="none" xmlns="http://www.w3.org/2000/svg">
<path d="M20.872 2.12295L18.3486 4.64625L21.8111 8.10853L25.4367 11.734C26.2624 11.3255 27.1788 11.1345 28.099 11.1791C29.0192 11.2237 29.9128 11.5025 30.6952 11.9889C31.4776 12.4754 32.1228 13.1535 32.5699 13.959C33.0169 14.7645 33.251 15.6708 33.2499 16.592C33.2303 17.4141 33.0389 18.223 32.6879 18.9667L36.4223 22.5921C37.4016 22.0263 38.5477 21.8199 39.663 22.0085C40.7782 22.1972 41.7926 22.769 42.5314 23.6253C43.0477 24.1204 43.4559 24.7168 43.7304 25.3773C44.005 26.0377 44.1399 26.7478 44.1267 27.4629C44.1279 28.8908 43.571 30.2627 42.575 31.2859C42.0738 31.8093 41.4698 32.2234 40.801 32.5023C40.1321 32.7812 39.4129 32.9188 38.6883 32.9064C37.9716 32.9177 37.26 32.7838 36.5964 32.5128C35.9328 32.2417 35.3309 31.8392 34.827 31.3294C33.9733 30.5844 33.4051 29.5658 33.2199 28.448C33.0347 27.3303 33.244 26.1829 33.8118 25.2024L30.1862 21.4682C30.0031 21.5511 29.8155 21.6237 29.6243 21.6857V33.2509C30.6767 33.6257 31.5882 34.3156 32.2347 35.2267C32.8946 36.1323 33.25 37.224 33.2499 38.3446C33.2641 39.0624 33.1301 39.7755 32.8562 40.4392C32.5824 41.103 32.1745 41.7031 31.6582 42.202C30.671 43.188 29.3406 43.7538 27.9456 43.7809C26.9375 43.8124 25.9408 43.5612 25.0681 43.0557C24.1954 42.5502 23.4816 41.8106 23.0074 40.9205C22.5332 40.0305 22.3176 39.0255 22.3849 38.0193C22.4521 37.013 22.7997 36.0457 23.3882 35.2267C24.0347 34.3156 24.9462 33.6257 25.9986 33.2509V21.6857C24.9439 21.3151 24.0313 20.6243 23.3882 19.7099C22.726 18.8054 22.3703 17.713 22.373 16.592C22.3715 15.7674 22.564 14.9539 22.935 14.2174L15.865 7.14779L2.12578 20.8736C1.45201 21.5469 0.917486 22.3462 0.552739 23.2261C0.187991 24.1059 0.000168458 25.049 1.13265e-07 26.0014C-0.000168231 26.9539 0.187321 27.897 0.551757 28.777C0.916194 29.657 1.45044 30.4565 2.12397 31.13L20.872 49.8771C22.2318 51.2364 24.0759 52 25.9986 52C27.9214 52 29.7655 51.2364 31.1253 49.8771L49.8769 31.1263C51.2363 29.7666 52 27.9227 52 26C52 24.0773 51.2363 22.2334 49.8769 20.8736L31.1253 2.12295C29.7655 0.763626 27.9214 0 25.9986 0C24.0759 0 22.2318 0.763626 20.872 2.12295Z" fill="#E64A19"/>
</svg>
