<svg width="46" height="52" viewBox="0 0 46 52" fill="none" xmlns="http://www.w3.org/2000/svg">
<path d="M4.173 46.8019L0 0H45.8529L41.6743 46.7944L22.8986 52L4.173 46.8019Z" fill="#E44F26"/>
<path d="M22.9264 48.0221L38.0992 43.8156L41.6687 3.82764H22.9264V48.0221Z" fill="#F1662A"/>
<path d="M22.9264 21.1844H15.3307L14.807 15.3066H22.9264V9.56616H8.53357L8.671 11.1076L10.0806 26.9249H22.9264V21.1844ZM22.9264 36.0917L22.9004 36.0992L16.5081 34.3739L16.0996 29.796H10.3369L11.141 38.8069L22.9004 42.0717L22.9264 42.0643V36.0917Z" fill="#EBEBEB"/>
<path d="M22.9059 21.1844V26.9249H29.9742L29.3094 34.3702L22.9059 36.0973V42.0699L34.6747 38.8069L34.7601 37.8374L36.1084 22.7259L36.2495 21.1844H22.9059ZM22.9059 9.56616V15.3066H36.7714L36.8865 14.0177L37.1484 11.1076L37.2858 9.56616H22.9059Z" fill="white"/>
</svg>
