<svg width="52" height="52" viewBox="0 0 52 52" fill="none" xmlns="http://www.w3.org/2000/svg">
<g clip-path="url(#clip0_38_220)">
<path d="M39.8125 0H12.1875C5.45653 0 0 5.45653 0 12.1875V39.8125C0 46.5435 5.45653 52 12.1875 52H39.8125C46.5435 52 52 46.5435 52 39.8125V12.1875C52 5.45653 46.5435 0 39.8125 0Z" fill="#F0DB4F"/>
<path d="M13.6727 43.455L17.652 41.0467C18.4198 42.4079 19.1181 43.5596 20.7933 43.5596C22.399 43.5596 23.4114 42.9315 23.4114 40.4883V23.8731H28.2982V40.5574C28.2982 45.6187 25.3313 47.9225 21.0027 47.9225C17.0936 47.9225 14.8245 45.898 13.6725 43.4546M30.9524 42.9313L34.9312 40.6277C35.9787 42.3382 37.3401 43.5947 39.7483 43.5947C41.7733 43.5947 43.0643 42.5824 43.0643 41.1861C43.0643 39.5107 41.7379 38.9172 39.504 37.9401L38.2826 37.4163C34.7569 35.9156 32.4181 34.0306 32.4181 30.0514C32.4181 26.3862 35.2107 23.5936 39.574 23.5936C42.6806 23.5936 44.9146 24.6759 46.5201 27.5032L42.7154 29.9466C41.8775 28.4457 40.9703 27.8523 39.574 27.8523C38.1428 27.8523 37.2352 28.7599 37.2352 29.9466C37.2352 31.4125 38.1428 32.0061 40.237 32.9138L41.4586 33.4373C45.6123 35.2177 47.9511 37.0324 47.9511 41.1162C47.9511 45.5147 44.4955 47.9229 39.8531 47.9229C35.3155 47.9229 32.3834 45.7588 30.9524 42.9313Z" fill="#323330"/>
</g>
<defs>
<clipPath id="clip0_38_220">
<rect width="52" height="52" fill="white"/>
</clipPath>
</defs>
</svg>
