<svg width="52" height="52" viewBox="0 0 52 52" fill="none" xmlns="http://www.w3.org/2000/svg">
<path d="M34.177 13L31.1252 19.5L32.5 22.7467H35.75L37.258 19.5L34.177 13Z" fill="#F4511E"/>
<path d="M22.75 3.25L26 16.25H29.25L34.177 6.5L39 16.25H42.25L45.5 3.25H22.75ZM45.5 32.5H42.25C40.5683 32.3727 38.988 31.647 37.7955 30.4545C36.603 29.262 35.8773 27.6816 35.75 26H32.5C32.3756 27.7283 31.5938 29.3434 30.3153 30.513C29.0368 31.6827 27.3588 32.3182 25.6262 32.2887C23.153 36.1562 17.2494 39.2486 13 40.6542C11.3901 40.0395 10.0338 38.901 9.14952 37.4219C8.26524 35.9427 7.90436 34.2091 8.12498 32.5H6.49998C-1.16677 45.4642 11.479 53.9809 24.3019 45.3294C30.6312 39.8076 48.1942 44.6664 45.5 32.5Z" fill="#F4511E"/>
<path d="M11.375 29.25C14.0674 29.25 16.25 27.0674 16.25 24.375C16.25 21.6826 14.0674 19.5 11.375 19.5C8.68261 19.5 6.5 21.6826 6.5 24.375C6.5 27.0674 8.68261 29.25 11.375 29.25Z" fill="#F4511E"/>
<path d="M43.875 29.25C46.5674 29.25 48.75 27.0674 48.75 24.375C48.75 21.6826 46.5674 19.5 43.875 19.5C41.1826 19.5 39 21.6826 39 24.375C39 27.0674 41.1826 29.25 43.875 29.25Z" fill="#F4511E"/>
<path d="M25.5357 28.7856C27.3306 28.7856 28.7857 27.3306 28.7857 25.5356C28.7857 23.7407 27.3306 22.2856 25.5357 22.2856C23.7408 22.2856 22.2857 23.7407 22.2857 25.5356C22.2857 27.3306 23.7408 28.7856 25.5357 28.7856Z" fill="#F4511E"/>
</svg>
