<svg width="40" height="34" viewBox="0 0 40 34" fill="none" xmlns="http://www.w3.org/2000/svg">
<g clip-path="url(#clip0_35_151)">
<path d="M32.3001 11.0088C31.8938 10.8695 31.4841 10.7403 31.0713 10.6215C31.1407 10.3382 31.2045 10.0583 31.2612 9.78333C32.1914 5.26774 31.5833 1.62989 29.5061 0.432132C27.5146 -0.716114 24.2576 0.481193 20.9683 3.3439C20.6441 3.62653 20.3271 3.91731 20.0176 4.21597C19.8104 4.01738 19.5996 3.82265 19.3852 3.63186C15.9378 0.570966 12.4823 -0.719096 10.4074 0.482088C8.41764 1.63391 7.82846 5.05375 8.66593 9.33327C8.74925 9.75711 8.84333 10.1788 8.94807 10.5978C8.45895 10.7368 7.98698 10.8847 7.53528 11.0422C3.49346 12.4514 0.912292 14.6598 0.912292 16.9505C0.912292 19.3163 3.68329 21.6893 7.89303 23.1282C8.23433 23.2443 8.57846 23.352 8.92511 23.451C8.81256 23.9024 8.71261 24.3568 8.62537 24.8137C7.82697 29.019 8.45045 32.358 10.4348 33.5025C12.4844 34.6844 15.9243 33.4697 19.2738 30.5417C19.5454 30.3036 19.811 30.0588 20.0704 29.8075C20.4056 30.1309 20.7497 30.4449 21.1023 30.7491C24.3469 33.541 27.5513 34.6683 29.5337 33.5207C31.5813 32.3353 32.2469 28.7483 31.3829 24.3842C31.3148 24.0423 31.2385 23.7021 31.1539 23.3639C31.3955 23.2924 31.6326 23.2187 31.8638 23.142C36.2402 21.6921 39.0877 19.3479 39.0877 16.9505C39.0877 14.6514 36.4232 12.4282 32.3001 11.0088ZM31.3509 21.5942C31.142 21.6631 30.9282 21.73 30.7097 21.7947C30.2266 20.2652 29.5746 18.6388 28.7766 16.9584C29.5381 15.318 30.165 13.7124 30.6346 12.1929C31.0251 12.3059 31.404 12.425 31.7694 12.5507C35.3021 13.767 37.4569 15.565 37.4569 16.9505C37.4569 18.4262 35.1297 20.342 31.3509 21.5942ZM29.7831 24.701C30.1651 26.6306 30.2195 28.3754 29.9665 29.7394C29.7392 30.965 29.282 31.7821 28.7165 32.1094C27.5136 32.8058 24.9407 31.9006 22.166 29.5129C21.838 29.23 21.5179 28.9381 21.2061 28.6375C22.2819 27.4611 23.3569 26.0935 24.4061 24.5745C26.2517 24.4108 27.9952 24.143 29.5764 23.7775C29.6544 24.0918 29.7233 24.3996 29.7831 24.701ZM13.9271 31.9891C12.7517 32.4041 11.8156 32.416 11.2496 32.0897C10.0455 31.3952 9.54486 28.7142 10.2277 25.1179C10.3089 24.693 10.4018 24.2703 10.5064 23.8505C12.0701 24.1965 13.801 24.4452 15.6508 24.5952C16.7072 26.0816 17.8133 27.4477 18.928 28.6439C18.6911 28.8731 18.4486 29.0965 18.2007 29.3138C16.7195 30.6085 15.2352 31.5271 13.9271 31.9891ZM8.42063 21.5851C6.55913 20.9487 5.02182 20.1219 3.96812 19.2195C3.02119 18.4087 2.54325 17.6036 2.54325 16.9505C2.54325 15.5603 4.61561 13.7873 8.07213 12.5822C8.49161 12.4361 8.93063 12.2981 9.3862 12.1687C9.86399 13.7226 10.4906 15.3472 11.2468 16.9901C10.4808 18.6573 9.8452 20.308 9.36278 21.8802C9.04637 21.7895 8.73222 21.6911 8.42063 21.5851ZM10.2665 9.01997C9.54904 5.35348 10.0255 2.5877 11.2246 1.89354C12.5017 1.15418 15.3258 2.20833 18.3024 4.85139C18.4965 5.02412 18.6875 5.20036 18.8752 5.38003C17.766 6.57107 16.6701 7.92704 15.6231 9.40455C13.8277 9.57097 12.109 9.8382 10.5289 10.1962C10.4316 9.80647 10.344 9.41416 10.2665 9.01997ZM26.7337 13.0864C26.3604 12.4417 25.9734 11.8052 25.5727 11.1772C26.7908 11.3312 27.9578 11.5357 29.0537 11.7856C28.7247 12.8402 28.3147 13.9427 27.8319 15.073C27.4791 14.4036 27.1129 13.7412 26.7337 13.0864ZM20.0184 6.54572C20.7705 7.36068 21.5239 8.27047 22.2649 9.25767C20.7617 9.18667 19.2561 9.18637 17.7529 9.25677C18.4946 8.27868 19.2544 7.37007 20.0184 6.54572ZM13.26 13.0974C12.8854 13.747 12.5261 14.4052 12.1822 15.0715C11.7074 13.9452 11.3011 12.8377 10.9693 11.7681C12.0585 11.5245 13.22 11.3253 14.4303 11.174C14.0252 11.8059 13.635 12.4473 13.26 13.0974ZM14.465 22.8428C13.2146 22.7032 12.0357 22.5142 10.9468 22.2771C11.2838 21.1885 11.6991 20.0574 12.1842 18.907C12.5294 19.5738 12.8902 20.2324 13.2664 20.8822C13.6532 21.5503 14.0537 22.2047 14.465 22.8428ZM20.0634 27.47C19.2903 26.6361 18.5194 25.7135 17.7665 24.7213C18.4975 24.7499 19.2426 24.7645 20 24.7645C20.7781 24.7645 21.5473 24.7471 22.3044 24.7134C21.561 25.7235 20.8105 26.6475 20.0634 27.47ZM27.8473 18.8482C28.3576 20.0114 28.7877 21.1365 29.1292 22.2064C28.0224 22.4591 26.8273 22.6625 25.5681 22.8135C25.9716 22.1739 26.3623 21.5263 26.7401 20.8711C27.1241 20.2051 27.4933 19.5306 27.8473 18.8482ZM25.3274 20.0562C24.7491 21.0608 24.1383 22.0462 23.496 23.0111C22.3325 23.0936 21.1664 23.1345 20 23.1338C18.812 23.1338 17.6564 23.0969 16.5436 23.0247C15.8845 22.0621 15.2621 21.0749 14.6777 20.0652C14.0959 19.0609 13.5527 18.0348 13.049 16.9892C13.5515 15.9434 14.0932 14.9169 14.6729 13.9118L14.6727 13.9119C15.2522 12.9066 15.8697 11.9236 16.5238 10.9651C17.6591 10.8792 18.8233 10.8345 19.9999 10.8345C21.1818 10.8345 22.3477 10.8797 23.4826 10.9662C24.1302 11.9232 24.7437 12.9028 25.3221 13.9031C25.9036 14.906 26.4525 15.9276 26.9678 16.9661C26.4578 18.0153 25.9107 19.046 25.3274 20.0562ZM28.6916 1.84477C29.9699 2.58204 30.4671 5.5551 29.6639 9.45391C29.6124 9.70285 29.5553 9.95586 29.4924 10.2129C27.9084 9.8473 26.1886 9.57545 24.388 9.40649C23.339 7.91273 22.2521 6.55467 21.1609 5.37898C21.4469 5.10334 21.7397 4.83484 22.039 4.57372C24.8574 2.1211 27.4915 1.15269 28.6916 1.84477ZM20 13.5415C21.8827 13.5415 23.409 15.0678 23.409 16.9505C23.409 18.8331 21.8827 20.3594 20 20.3594C18.1173 20.3594 16.5911 18.8331 16.5911 16.9505C16.5911 15.0678 18.1173 13.5415 20 13.5415Z" fill="#00D8FF"/>
</g>
<defs>
<clipPath id="clip0_35_151">
<rect width="38.1754" height="34" fill="white" transform="translate(0.912292)"/>
</clipPath>
</defs>
</svg>
