<svg width="24" height="24" viewBox="0 0 24 24" fill="none" xmlns="http://www.w3.org/2000/svg">
<rect width="24" height="24" fill="#0C091C"/>
<path d="M21 15.9999V10.0999L12.95 14.4749C12.65 14.6416 12.3333 14.7249 12 14.7249C11.6667 14.7249 11.35 14.6416 11.05 14.4749L2.6 9.87492C2.41667 9.77492 2.28733 9.64992 2.212 9.49992C2.13667 9.34992 2.09933 9.18325 2.1 8.99992C2.10067 8.81658 2.13833 8.64992 2.213 8.49992C2.28767 8.34992 2.41667 8.22492 2.6 8.12492L11.05 3.52492C11.2 3.44158 11.3543 3.37892 11.513 3.33692C11.6717 3.29492 11.834 3.27425 12 3.27492C12.166 3.27558 12.3287 3.29658 12.488 3.33792C12.6473 3.37925 12.8013 3.44158 12.95 3.52492L22.475 8.72492C22.6417 8.80825 22.771 8.92925 22.863 9.08792C22.955 9.24658 23.0007 9.41725 23 9.59992V15.9999C23 16.2833 22.904 16.5209 22.712 16.7129C22.52 16.9049 22.2827 17.0006 22 16.9999C21.7173 16.9993 21.48 16.9033 21.288 16.7119C21.096 16.5206 21 16.2833 21 15.9999ZM11.05 20.4749L6.05 17.7749C5.71667 17.5916 5.45833 17.3416 5.275 17.0249C5.09167 16.7083 5 16.3666 5 15.9999V12.1999L11.05 15.4749C11.35 15.6416 11.6667 15.7249 12 15.7249C12.3333 15.7249 12.65 15.6416 12.95 15.4749L19 12.1999V15.9999C19 16.3666 18.9083 16.7083 18.725 17.0249C18.5417 17.3416 18.2833 17.5916 17.95 17.7749L12.95 20.4749C12.8 20.5583 12.646 20.6209 12.488 20.6629C12.33 20.7049 12.1673 20.7256 12 20.7249C11.8327 20.7243 11.67 20.7036 11.512 20.6629C11.354 20.6223 11.2 20.5596 11.05 20.4749Z" fill="#E7E8F0"/>
</svg>
