<svg width="52" height="52" viewBox="0 0 52 52" fill="none" xmlns="http://www.w3.org/2000/svg">
<g clip-path="url(#clip0_38_207)">
<path d="M39.8125 0H12.1875C5.45653 0 0 5.45653 0 12.1875V39.8125C0 46.5435 5.45653 52 12.1875 52H39.8125C46.5435 52 52 46.5435 52 39.8125V12.1875C52 5.45653 46.5435 0 39.8125 0Z" fill="#007ACC"/>
<path d="M11.4991 26.1725L11.4827 28.3021H18.2508V47.5337H23.0382V28.3021H29.8064V26.2137C29.8064 25.0582 29.7818 24.0925 29.7487 24.0677C29.7239 24.0348 25.6051 24.0182 20.6115 24.0265L11.5239 24.0513L11.4991 26.1725ZM41.9589 23.9907C43.2794 24.321 44.2865 24.907 45.211 25.8644C45.6897 26.3762 46.3994 27.309 46.4573 27.5318C46.4738 27.5978 44.2122 29.1166 42.8421 29.9667C42.7926 29.9998 42.5943 29.7851 42.3715 29.455C41.703 28.481 41.0014 28.0599 39.9283 27.9858C38.3518 27.8784 37.3366 28.7039 37.3449 30.0823C37.3449 30.4867 37.4026 30.726 37.5678 31.0562C37.9143 31.7743 38.5582 32.2035 40.5805 33.0784C44.303 34.6798 45.8959 35.7362 46.8865 37.2383C47.9926 38.9139 48.2402 41.5883 47.489 43.5775C46.6637 45.7399 44.6166 47.2091 41.7359 47.6962C40.8446 47.8531 38.7315 47.8283 37.7741 47.655C35.6858 47.2835 33.7049 46.2518 32.4834 44.8982C32.0046 44.3699 31.0718 42.9915 31.1297 42.8923C31.1543 42.8594 31.369 42.7274 31.6083 42.587C31.8394 42.455 32.7145 41.9515 33.5398 41.4727L35.0338 40.606L35.3474 41.0683C35.7849 41.7368 36.7423 42.6531 37.3202 42.9584C38.9791 43.8334 41.2573 43.7095 42.3798 42.7026C42.8586 42.2651 43.0566 41.8111 43.0566 41.1426C43.0566 40.5399 42.9823 40.2759 42.6686 39.8219C42.2642 39.2442 41.4389 38.7571 39.0947 37.7419C36.4122 36.5863 35.2566 35.8683 34.2002 34.7291C33.5894 34.069 33.0115 33.0123 32.7722 32.1291C32.5741 31.3946 32.5246 29.5539 32.6814 28.8111C33.2343 26.2194 35.1906 24.4118 38.0134 23.8752C38.9297 23.7019 41.0591 23.7679 41.9589 23.9907Z" fill="white"/>
</g>
<defs>
<clipPath id="clip0_38_207">
<rect width="52" height="52" fill="white"/>
</clipPath>
</defs>
</svg>
