<svg width="24" height="25" viewBox="0 0 24 25" fill="none" xmlns="http://www.w3.org/2000/svg">
<path d="M24 5V20H0V5H7.5V3.5C7.5 3.28906 7.53906 3.09375 7.61719 2.91406C7.69531 2.73438 7.80078 2.57812 7.93359 2.44531C8.06641 2.3125 8.22656 2.20312 8.41406 2.11719C8.60156 2.03125 8.79688 1.99219 9 2H15C15.2109 2 15.4062 2.03906 15.5859 2.11719C15.7656 2.19531 15.9219 2.30078 16.0547 2.43359C16.1875 2.56641 16.2969 2.72656 16.3828 2.91406C16.4688 3.10156 16.5078 3.29687 16.5 3.5V5H24ZM9 5H15V3.5H9V5ZM1.5 6.5V8.66797L9 12.4062V11H15V12.4062L22.5 8.66797V6.5H1.5ZM10.5 12.5V14H13.5V12.5H10.5ZM22.5 18.5V10.332L15 14.0938V15.5H9V14.0938L1.5 10.332V18.5H22.5Z" fill="#E7E8F0"/>
</svg>
